{"title":"Indian Summers S01E02 x264 RB58.mp4","uid":11718501,"size":543684498,"categoryP":"video","categoryS":"tv_shows","magnet":"?xt=urn:btih:761318f80bd18663d017927b3c05dd786f43de88&amp;dn=Indian+Summers+S01E02+x264+RB58.mp4&amp;tr=udp%3A%2F%2Ftracker.openbittorrent.com%3A80&amp;tr=udp%3A%2F%2Fopen.demonii.com%3A1337&amp;tr=udp%3A%2F%2Ftracker.coppersurfer.tk%3A6969&amp;tr=udp%3A%2F%2Fexodus.desync.com%3A6969","seeders":4,"leechers":0,"uploader":"RedBaron58","files":1,"time":1424702913,"description":"Indian Summers S01E02 x264 mp4\n &lt;a href=&quot;\nhttp://www.imdb.com/title/tt3706628/&quot; rel=&quot;nofollow&quot; target=&quot;_NEW&quot;&gt;\nhttp://www.imdb.com/title/tt3706628/&lt;/a&gt;\n\nTrailer:\n\nPlease be patient My intial upload speed is limited.\nThank you for your kind comments and feedback on my other torrents, your feedback is welcome.\n\n\nAbout the Episode:\nDrama set in 1932, telling the story of the decline of the British Empire and the birth of modern India. \nThe fallout from the shooting reverberates around Simla and a curfew is imposed to deal with the supposed \nterrorist threat, and the arrival of a journalist causes trouble for Ralph when he tries to uncover the truth \nbehind the assassination attempt. \nIan is shocked to learn of his uncle's financial difficulties, while Eugene and Cynthia conspire to \npush Madeleine and Ralph closer together. \nSarah becomes suspicious of Alice's past and turns detective to find out why she really moved to India.\n\nStarring Julie Walters, Henry Lloyd-Hughes, Jemima West and Craig Parkinson\n\n\nI hope you enjoy.\n\n\nTechnical:\n\nGeneral\nComplete name                            : H:Indian Summers S01E02 x264 RB58.mp4\nFormat                                   : MPEG-4\nFormat profile                           : Base Media\nCodec ID                                 : isom\nFile size                                : 518 MiB\nDuration                                 : 47mn 33s\nOverall bit rate                         : 1 524 Kbps\nWriting application                      : Lavf54.63.104\n\nVideo\nID                                       : 1\nFormat                                   : AVC\nFormat/Info                              : Advanced Video Codec\nFormat profile                           : &lt;a class=&quot;__cf_email__&quot; href=&quot;/cdn-cgi/l/email-protection&quot; data-cfemail=&quot;86ceefe1eec6cab5a8b6&quot;&gt;[email&amp;#160;protected]&lt;/a&gt;&lt;script cf-hash='f9e31' type=&quot;text/javascript&quot;&gt;\n/* &lt;![CDATA[ */!function(){try{var t=&quot;currentScript&quot;in document?document.currentScript:function(){for(var t=document.getElementsByTagName(&quot;script&quot;),e=t.length;e--;)if(t[e].getAttribute(&quot;cf-hash&quot;))return t[e]}();if(t&amp;&amp;t.previousSibling){var e,r,n,i,c=t.previousSibling,a=c.getAttribute(&quot;data-cfemail&quot;);if(a){for(e=&quot;&quot;,r=parseInt(a.substr(0,2),16),n=2;a.length-n;n+=2)i=parseInt(a.substr(n,2),16)^r,e+=String.fromCharCode(i);e=document.createTextNode(e),c.parentNode.replaceChild(e,c)}}}catch(u){}}();/* ]]&gt; */&lt;/script&gt;\nFormat settings, CABAC                   : Yes\nFormat settings, ReFrames                : 4 frames\nCodec ID                                 : avc1\nCodec ID/Info                            : Advanced Video Coding\nDuration                                 : 47mn 33s\nBit rate                                 : 1 400 Kbps\nWidth                                    : 832 pixels\nHeight                                   : 468 pixels\nDisplay aspect ratio                     : 16:9\nFrame rate mode                          : Constant\nFrame rate                               : 25.000 fps\nColor space                              : YUV\nChroma subsampling                       : 4:2:0\nBit depth                                : 8 bits\nScan type                                : Progressive\nBits/(Pixel*Frame)                       : 0.144\nStream size                              : 476 MiB (92%)\nWriting library                          : x264 core 123 r2189 35cf912\nEncoding settings                        : cabac=1 / ref=3 / deblock=1:0:0\n\nAudio\nID                                       : 2\nFormat                                   : AAC\nFormat/Info                              : Advanced Audio Codec\nFormat profile                           : LC\nCodec ID                                 : 40\nDuration                                 : 47mn 33s\nBit rate mode                            : Constant\nBit rate                                 : 117 Kbps\nChannel(s)                               : 2 channels\nChannel positions                        : Front: L R\nSampling rate                            : 48.0 KHz\nCompression mode                         : Lossy\nStream size                              : 39.7 MiB (8%)","torrent":{"xt":"urn:btih:761318f80bd18663d017927b3c05dd786f43de88","amp;dn":"Indian+Summers+S01E02+x264+RB58.mp4","amp;tr":["udp%3A%2F%2Ftracker.openbittorrent.com%3A80","udp%3A%2F%2Fopen.demonii.com%3A1337","udp%3A%2F%2Ftracker.coppersurfer.tk%3A6969","udp%3A%2F%2Fexodus.desync.com%3A6969"],"infoHash":"761318f80bd18663d017927b3c05dd786f43de88","infoHashBuffer":{"type":"Buffer","data":[118,19,24,248,11,209,134,99,208,23,146,123,60,5,221,120,111,67,222,136]},"announce":[],"urlList":[]}}